# xmcd
#
# Track frame offsets: 
#        150
#        15070
#        28252
#        43015
#        59022
#        78717
#        93695
#        106680
#        123187
#        139720
#        155190
#        169300
#        185700
#        198932
#        214772
#        227740
#        244377
#
# Disc length: 3721 seconds
#
# Revision: 0
# Processed by: cddbd v1.5.2PL0 Copyright (c) Steve Scherf et al.
# Submitted via: ExactAudioCopy v0.95b4
#
DISCID=f10e8711
DTITLE=The Softones - The Very Best Of
DYEAR=1999
DGENRE=Soul
TTITLE0=My Dream
TTITLE1=Can't Help Falling In Love
TTITLE2=I'm Gonna Prove It
TTITLE3=The First Day
TTITLE4=Silly Billy
TTITLE5=Hey There Lonely Girl
TTITLE6=Any Street
TTITLE7=Maybe Tomorrow
TTITLE8=That Old Black Magic
TTITLE9=Laundromat
TTITLE10=And I Remember Your Face
TTITLE11=I Played the Fool
TTITLE12=Extra Ordinary People
TTITLE13=That's What Love Can Do
TTITLE14=Sweet Dreamer
TTITLE15=I'm Gonna Make the Score
TTITLE16=You Go Your Way, I'll Go Mine ((Live In Japan))
EXTD=
EXTT0=
EXTT1=
EXTT2=
EXTT3=
EXTT4=
EXTT5=
EXTT6=
EXTT7=
EXTT8=
EXTT9=
EXTT10=
EXTT11=
EXTT12=
EXTT13=
EXTT14=
EXTT15=
EXTT16=
PLAYORDER=
